<svg xmlns="http://www.w3.org/2000/svg" viewBox="0 0 64 64">
  <defs>
    <linearGradient id="elixirGrad" x1="0%" y1="0%" x2="100%" y2="100%">
      <stop offset="0%" style="stop-color:#6e44ff"/>
      <stop offset="100%" style="stop-color:#4b2d8e"/>
    </linearGradient>
  </defs>
  <!-- Drop shape -->
  <path d="M32 4 C32 4 12 28 12 40 C12 51 21 58 32 58 C43 58 52 51 52 40 C52 28 32 4 32 4Z" fill="url(#elixirGrad)"/>
  <!-- Inner highlight -->
  <path d="M32 12 C32 12 18 30 18 40 C18 48 24 54 32 54 C40 54 46 48 46 40 C46 30 32 12 32 12Z" fill="#8b5cf6" opacity="0.4"/>
  <!-- Shine -->
  <ellipse cx="26" cy="34" rx="4" ry="7" fill="#fff" opacity="0.2" transform="rotate(-15, 26, 34)"/>
</svg>
